HIERARCHY
ROOT Hips
{
  OFFSET 0.000000 0.000000 0.000000
  CHANNELS 6 Xposition Yposition Zposition Zrotation Xrotation Yrotation
  JOINT RightUpLeg
  {
    OFFSET -5.487494 -9.381747 0.094328
    CHANNELS 3 Zrotation Xrotation Yrotation
    JOINT RightLeg
    {
      OFFSET -7.983605 -37.352596 8.068061
      CHANNELS 3 Zrotation Xrotation Yrotation
      JOINT RightFoot
      {
        OFFSET -0.145139 -37.217922 -19.618044
        CHANNELS 3 Zrotation Xrotation Yrotation
        JOINT RightToeBase
        {
          OFFSET -7.215506 -6.250739 11.370057
          CHANNELS 3 Zrotation Xrotation Yrotation
          End Site
          {
            OFFSET 0.000000 4.000000 0.000000
          }
        }
      }
    }
  }
  JOINT LeftUpLeg
  {
    OFFSET 6.296491 -8.235275 0.748582
    CHANNELS 3 Zrotation Xrotation Yrotation
    JOINT LeftLeg
    {
      OFFSET 11.562640 -33.558445 17.531740
      CHANNELS 3 Zrotation Xrotation Yrotation
      JOINT LeftFoot
      {
        OFFSET -2.750175 -41.732079 -5.463530
        CHANNELS 3 Zrotation Xrotation Yrotation
        JOINT LeftToeBase
        {
          OFFSET 8.698879 -4.074788 10.392057
          CHANNELS 3 Zrotation Xrotation Yrotation
          End Site
          {
            OFFSET 0.000000 4.000000 0.000000
          }
        }
      }
    }
  }
  JOINT Spine
  {
    OFFSET -0.257888 12.400627 -4.650802
    CHANNELS 3 Zrotation Xrotation Yrotation
    JOINT Spine1
    {
      OFFSET -2.014547 13.973212 2.136809
      CHANNELS 3 Zrotation Xrotation Yrotation
      JOINT Spine2
      {
        OFFSET -1.235562 4.289031 3.308109
        CHANNELS 3 Zrotation Xrotation Yrotation
        JOINT Neck
        {
          OFFSET -5.908795 21.435987 -0.379425
          CHANNELS 3 Zrotation Xrotation Yrotation
          JOINT Head
          {
            OFFSET -4.198195 5.803156 8.046883
            CHANNELS 3 Zrotation Xrotation Yrotation
            End Site
            {
              OFFSET 0.000000 4.000000 0.000000
            }
          }
        }
        JOINT RightShoulder
        {
          OFFSET -10.624613 9.879911 -2.879685
          CHANNELS 3 Zrotation Xrotation Yrotation
          JOINT RightArm
          {
            OFFSET -12.256959 -3.839350 -0.320675
            CHANNELS 3 Zrotation Xrotation Yrotation
            JOINT RightForeArm
            {
              OFFSET -2.786326 -25.423409 5.026492
              CHANNELS 3 Zrotation Xrotation Yrotation
              JOINT RightHand
              {
                OFFSET 7.240117 -17.688488 18.978210
                CHANNELS 3 Zrotation Xrotation Yrotation
                End Site
                {
                  OFFSET 0.000000 4.000000 0.000000
                }
              }
            }
          }
        }
        JOINT LeftShoulder
        {
          OFFSET 4.218663 13.211573 0.342851
          CHANNELS 3 Zrotation Xrotation Yrotation
          JOINT LeftArm
          {
            OFFSET 13.538692 1.764667 2.506725
            CHANNELS 3 Zrotation Xrotation Yrotation
            JOINT LeftForeArm
            {
              OFFSET 10.680405 -22.462917 0.145425
              CHANNELS 3 Zrotation Xrotation Yrotation
              JOINT LeftHand
              {
                OFFSET -9.091269 -17.490213 17.863834
                CHANNELS 3 Zrotation Xrotation Yrotation
                End Site
                {
                  OFFSET 0.000000 4.000000 0.000000
                }
              }
            }
          }
        }
      }
    }
  }
}
MOTION
Frames: 9
Frame Time: 0.050000
0.000000 0.000000 0.000000 -0.000000 0.000000 0.000000 -0.000000 0.000000 0.000000 -0.000000 0.000000 0.000000 -0.000000 0.000000 0.000000 -0.000000 0.000000 0.000000 -0.000000 0.000000 0.000000 -0.000000 0.000000 0.000000 -0.000000 0.000000 0.000000 -0.000000 0.000000 0.000000 -0.000000 0.000000 0.000000 -0.000000 0.000000 0.000000 -0.000000 0.000000 0.000000 -0.000000 0.000000 0.000000 -0.000000 0.000000 0.000000 -0.000000 0.000000 0.000000 -0.000000 0.000000 0.000000 -0.000000 0.000000 0.000000 -0.000000 0.000000 0.000000 -0.000000 0.000000 0.000000 -0.000000 0.000000 0.000000 -0.000000 0.000000 0.000000 -0.000000 0.000000 0.000000
-2.341658 0.563085 -5.075163 0.174091 0.141348 0.068046 1.415438 -2.327731 0.775739 -0.756486 -1.399521 -1.229156 -0.932263 3.508141 0.475529 0.049939 0.079749 -0.001256 -2.083999 3.691548 0.319747 -3.525092 8.392095 -0.138087 0.596423 -4.546184 5.281120 4.168158 -8.070068 -5.028247 -0.410637 -0.613839 -0.102195 0.071637 -0.785006 -0.206838 -0.384262 0.154277 -0.071344 0.558598 0.218818 -0.355896 -0.021851 0.886170 0.664524 0.505359 1.571389 -1.174819 -1.425534 2.976250 0.859126 -2.157748 0.254478 -1.772184 3.694672 -3.603935 2.488816 -0.360711 1.356763 -0.319598 -0.427036 -1.273711 0.139188 1.433222 1.734370 0.215142 -0.101962 -0.710309 0.262660
-4.903797 0.734735 -10.234818 -0.053920 0.573510 -0.008041 2.991848 -4.685812 1.653360 -1.260278 -2.696346 -2.345320 -1.996412 6.043112 1.641231 0.163432 0.767124 -0.597606 -3.756086 7.555430 1.108516 -5.116893 13.271151 -0.429750 -1.126046 -7.390229 6.921736 8.456081 -15.077484 -6.445525 -0.581079 -1.673959 -0.065559 0.396983 -1.030226 -0.380389 -1.068745 0.058074 -0.137328 1.399696 0.341187 -0.850692 -0.138850 1.734797 1.421080 0.916211 3.100167 -2.622685 -2.078207 4.974384 2.194925 -4.578162 2.216225 -3.189023 7.336975 -7.870862 4.689360 -0.103828 2.544387 -0.942258 -0.562570 -2.374898 0.612522 1.668751 2.843991 0.095843 0.310733 -0.934900 0.800317
-7.624622 0.679702 -15.586763 -0.257573 1.533094 -0.061583 5.194256 -9.648027 3.330531 -1.946572 -3.568105 -4.231487 -3.711702 9.471625 3.977980 0.391516 2.202301 -1.912108 -6.200958 13.973622 3.042994 -5.752421 16.307455 -1.833322 -5.606672 -8.887753 4.543041 16.475271 -24.208665 -3.552974 -1.250966 -3.223459 -0.006894 0.705405 -0.253071 0.062386 -1.801555 -0.551729 -0.782572 3.025592 1.034117 -1.043008 -0.477176 1.485920 1.717054 1.868175 4.144691 -4.301777 -2.781819 8.641655 3.550798 -7.928606 4.448885 -4.867383 12.351425 -13.764917 7.773758 0.206899 3.225433 -1.113992 -0.052118 -2.841667 0.823008 1.485684 3.527274 -0.675578 0.994218 -1.359303 1.720646
-10.691402 0.498033 -21.496910 -0.939674 2.582827 -0.279936 7.868670 -13.463960 5.069049 -2.484921 -6.220030 -5.899577 -5.955066 12.502250 7.182805 1.008595 4.508554 -3.714675 -9.036976 19.198603 4.784841 -3.772245 16.629605 -2.609842 -11.378720 -6.496531 -3.469306 28.087252 -30.366116 6.503614 -1.485119 -4.811215 0.218867 0.991571 0.280058 0.500662 -2.938987 -0.699272 -1.369352 4.551398 0.744271 -1.011289 -0.237704 1.980579 1.727726 3.193594 5.085530 -6.433864 -2.946342 11.656192 5.494571 -11.141450 6.286000 -6.613174 16.985823 -18.473793 10.904104 0.669917 3.704814 -1.216111 0.164042 -3.733714 0.694082 2.187531 4.787909 -1.105752 1.418513 -1.966188 2.467585
-13.802788 0.265610 -27.864658 -1.507621 3.341199 -0.457104 9.894735 -16.979523 6.673497 -2.975581 -10.556375 -7.211327 -8.053263 16.262104 11.147182 2.023861 7.654193 -6.174442 -12.819566 24.920704 6.937339 -0.065622 10.665365 -3.280426 -13.876103 -2.796261 -11.295011 35.920683 -30.053880 16.312410 -2.893479 -5.506850 0.575494 1.395768 0.951815 1.664651 -4.272460 -0.664258 -2.732743 7.022044 0.110222 -0.522200 0.226775 1.977098 1.084537 5.262235 4.859552 -7.593334 -2.649088 14.924001 6.354620 -13.756978 7.052380 -8.678980 21.296616 -21.637219 14.178688 1.000503 3.498824 -0.921486 1.000777 -4.366071 0.146098 3.783808 5.435962 -1.365478 1.570635 -2.355338 2.821321
-16.911032 0.044417 -34.581802 -1.731572 4.505972 -0.495040 11.276348 -19.946112 7.904336 -3.558098 -17.878797 -8.168588 -10.215368 19.722575 17.054324 4.095463 12.801224 -10.367660 -15.942330 28.378183 8.513244 4.739004 -0.612960 -3.338789 -10.764533 -5.449073 -19.124446 29.960567 -19.185356 20.764805 -4.709145 -5.538566 0.917753 2.142309 1.180196 2.616270 -5.532340 -0.256235 -3.774226 7.534161 -2.472800 1.395599 2.385590 2.848587 -1.244846 6.166655 3.188630 -7.363749 -0.594201 18.136988 5.724322 -14.686954 4.957511 -9.710359 22.118789 -22.085347 14.844661 0.773504 2.261347 -0.485808 1.929643 -5.244158 -1.069444 5.454808 5.054695 -0.805884 1.669321 -1.414401 2.448239
-19.914635 -0.529259 -41.321453 -1.455622 5.815895 -0.357867 11.038280 -22.312428 8.294050 -4.671319 -25.659930 -8.012778 -11.207841 22.525684 20.825650 7.422771 18.118423 -13.719794 -17.122879 27.739901 7.872470 7.989494 -8.683286 -2.301831 -3.703453 -14.332750 -15.782128 14.747805 -7.917287 15.001030 -6.567033 -4.919457 1.125091 1.485567 -0.406260 3.881427 -5.773164 1.243745 -5.058809 8.160410 -5.720376 2.603100 4.444281 4.246066 -3.016871 5.285427 1.574662 -7.016946 1.579147 18.448894 4.986736 -12.845683 3.290420 -9.229754 21.188793 -20.811743 14.308985 2.133476 0.868931 -1.025609 3.233659 -4.679435 -0.568448 4.141810 3.416094 -1.967147 2.920540 -0.531374 3.300522
-22.814617 0.361037 -47.414162 -1.265883 5.431903 -0.307217 7.811960 -23.575791 7.191837 -3.532398 -19.530337 -6.752637 -7.410602 20.484769 17.072362 6.044568 16.271593 -12.861495 -15.037682 24.320082 6.182908 8.631481 -10.687770 -1.629580 -1.200172 -15.321113 -13.331996 8.234901 -2.646969 12.792357 -8.092934 -3.217644 1.490270 1.525442 -0.524088 4.817759 -5.539207 1.681051 -5.979811 7.515119 -6.300061 5.542481 6.289064 2.799400 -6.380794 4.214828 -0.757866 -5.090558 3.915997 17.827371 2.498814 -10.132718 1.350658 -7.236781 17.700090 -18.523025 11.588912 0.783164 -0.245770 -1.266116 4.103811 -3.186630 0.145510 6.889513 2.071233 -2.093733 1.819476 -1.230251 2.510324
